<svg xmlns="http://www.w3.org/2000/svg" xmlns:xlink="http://www.w3.org/1999/xlink" width="240.75" viewBox="0 0 240.75 141.75" height="141.75" version="1.0"><defs><g id="b"><path d="M 161.359375 -27.28125 C 157.554688 -27.71875 153.722656 -27.9375 149.859375 -27.9375 C 148.171875 -28 146.453125 -28.050781 144.703125 -28.09375 C 128.753906 -28.75 112.769531 -28.914062 96.75 -28.59375 C 95.957031 -28.59375 95.300781 -28.59375 94.78125 -28.59375 C 93.90625 -28.65625 93.269531 -28.648438 92.875 -28.578125 C 92.476562 -28.515625 92.160156 -28.296875 91.921875 -27.921875 C 91.679688 -27.554688 91.398438 -26.957031 91.078125 -26.125 C 90.859375 -25.644531 90.601562 -25.046875 90.3125 -24.328125 C 87.644531 -18.515625 85.195312 -12.601562 82.96875 -6.59375 C 81.507812 -2.71875 80.382812 1.257812 79.59375 5.34375 C 79.289062 6.613281 79.179688 7.847656 79.265625 9.046875 C 79.359375 10.253906 79.90625 11.335938 80.90625 12.296875 C 81.039062 12.398438 81.085938 12.523438 81.046875 12.671875 C 81.015625 12.816406 80.925781 12.953125 80.78125 13.078125 C 80.644531 13.210938 80.5 13.300781 80.34375 13.34375 C 77.96875 13.695312 76.539062 12.851562 76.0625 10.8125 C 75.789062 9.65625 75.742188 8.46875 75.921875 7.25 C 75.921875 7.15625 75.921875 7.085938 75.921875 7.046875 C 76.097656 4.953125 76.46875 2.875 77.03125 0.8125 C 77.601562 -1.238281 78.238281 -3.300781 78.9375 -5.375 C 81.1875 -11.582031 83.660156 -17.710938 86.359375 -23.765625 C 86.503906 -24.023438 86.617188 -24.285156 86.703125 -24.546875 C 86.835938 -24.835938 86.984375 -25.144531 87.140625 -25.46875 C 87.359375 -25.90625 87.554688 -26.34375 87.734375 -26.78125 C 87.921875 -27.21875 87.992188 -27.675781 87.953125 -28.15625 C 87.734375 -28.332031 87.515625 -28.441406 87.296875 -28.484375 C 87.078125 -28.523438 86.859375 -28.523438 86.640625 -28.484375 C 86.597656 -28.484375 86.546875 -28.484375 86.484375 -28.484375 C 84.617188 -28.484375 82.738281 -28.460938 80.84375 -28.421875 C 80.320312 -28.421875 79.773438 -28.421875 79.203125 -28.421875 C 78.503906 -28.378906 77.914062 -28.160156 77.4375 -27.765625 C 76.957031 -27.367188 76.5 -26.878906 76.0625 -26.296875 C 75.488281 -25.566406 74.914062 -24.832031 74.34375 -24.09375 C 71.882812 -20.96875 69.414062 -17.875 66.9375 -14.8125 C 63.25 -10.351562 59.398438 -6.050781 55.390625 -1.90625 C 51.378906 2.226562 47.125 6.109375 42.625 9.734375 C 36.976562 14.390625 30.976562 18.488281 24.625 22.03125 C 14.914062 27.25 4.738281 29.71875 -5.90625 29.4375 C -15.9375 29.21875 -24.984375 26.507812 -33.046875 21.3125 C -35.316406 19.863281 -37.328125 18.113281 -39.078125 16.0625 C -40.253906 14.601562 -41.1875 13.035156 -41.875 11.359375 C -42.5625 9.679688 -42.90625 7.851562 -42.90625 5.875 C -42.800781 3.507812 -42.253906 1.316406 -41.265625 -0.703125 C -40.285156 -2.722656 -38.921875 -4.554688 -37.171875 -6.203125 C -34.765625 -8.535156 -32.117188 -10.507812 -29.234375 -12.125 C -26.421875 -13.75 -23.523438 -15.171875 -20.546875 -16.390625 C -17.578125 -17.617188 -14.578125 -18.710938 -11.546875 -19.671875 C -6.648438 -21.242188 -1.707031 -22.566406 3.28125 -23.640625 C 8.28125 -24.710938 13.296875 -25.628906 18.328125 -26.390625 C 30.273438 -28.046875 42.25 -29.140625 54.25 -29.671875 C 60.375 -30.046875 66.484375 -30.234375 72.578125 -30.234375 C 74.242188 -30.203125 75.535156 -30.910156 76.453125 -32.359375 C 78.066406 -34.628906 79.691406 -36.910156 81.328125 -39.203125 C 83.847656 -42.703125 86.332031 -46.265625 88.78125 -49.890625 C 100.164062 -66.878906 111.070312 -84.15625 121.5 -101.71875 C 122.375 -103.207031 123.234375 -104.71875 124.078125 -106.25 C 124.472656 -107.019531 124.890625 -107.804688 125.328125 -108.609375 C 125.847656 -109.617188 126.671875 -110.1875 127.796875 -110.3125 C 128.421875 -110.3125 128.875 -110.132812 129.15625 -109.78125 C 129.445312 -109.4375 129.484375 -108.976562 129.265625 -108.40625 C 129.046875 -107.925781 128.796875 -107.46875 128.515625 -107.03125 C 126.828125 -104 125.328125 -100.929688 124.015625 -97.828125 C 123.515625 -96.734375 123.023438 -95.660156 122.546875 -94.609375 C 117.953125 -84.640625 113.335938 -74.65625 108.703125 -64.65625 C 105.160156 -56.957031 101.585938 -49.238281 97.984375 -41.5 C 96.941406 -39.207031 95.914062 -36.925781 94.90625 -34.65625 C 94.6875 -34.175781 94.46875 -33.71875 94.25 -33.28125 C 94.207031 -33.1875 94.164062 -33.078125 94.125 -32.953125 C 93.988281 -32.640625 93.875 -32.328125 93.78125 -32.015625 C 93.695312 -31.710938 93.722656 -31.410156 93.859375 -31.109375 C 94.160156 -30.890625 94.507812 -30.769531 94.90625 -30.75 C 95.300781 -30.726562 95.671875 -30.71875 96.015625 -30.71875 C 96.285156 -30.757812 96.53125 -30.78125 96.75 -30.78125 C 98.40625 -30.738281 100.066406 -30.738281 101.734375 -30.78125 C 104.003906 -30.78125 106.285156 -30.757812 108.578125 -30.71875 C 120.992188 -30.5 133.421875 -30.226562 145.859375 -29.90625 C 149.941406 -29.832031 153.992188 -29.664062 158.015625 -29.40625 C 158.367188 -29.363281 158.75 -29.34375 159.15625 -29.34375 C 159.375 -29.34375 159.613281 -29.34375 159.875 -29.34375 C 160.382812 -29.34375 160.882812 -29.296875 161.375 -29.203125 C 161.863281 -29.117188 162.328125 -28.945312 162.765625 -28.6875 C 162.835938 -28.625 162.894531 -28.53125 162.9375 -28.40625 C 162.976562 -28.28125 162.976562 -28.175781 162.9375 -28.09375 C 162.9375 -27.957031 162.878906 -27.832031 162.765625 -27.71875 C 162.660156 -27.613281 162.570312 -27.539062 162.5 -27.5 C 162.132812 -27.351562 161.753906 -27.28125 161.359375 -27.28125 Z M 72.359375 -26.953125 C 72.503906 -27.234375 72.519531 -27.484375 72.40625 -27.703125 C 72.300781 -27.921875 72.117188 -28.03125 71.859375 -28.03125 C 71.460938 -28.070312 71.046875 -28.070312 70.609375 -28.03125 C 70.390625 -28.03125 70.171875 -28.03125 69.953125 -28.03125 C 54.921875 -27.851562 39.882812 -26.816406 24.84375 -24.921875 C 19.082031 -24.234375 13.359375 -23.320312 7.671875 -22.1875 C 1.984375 -21.050781 -3.65625 -19.625 -9.25 -17.90625 C -12.238281 -16.988281 -15.1875 -15.9375 -18.09375 -14.75 C -21 -13.570312 -23.832031 -12.164062 -26.59375 -10.53125 C -29.476562 -8.925781 -32.109375 -6.957031 -34.484375 -4.625 C -37.242188 -1.78125 -38.796875 1.242188 -39.140625 4.453125 C -39.492188 7.671875 -38.640625 10.773438 -36.578125 13.765625 C -35.035156 15.847656 -33.203125 17.640625 -31.078125 19.140625 C -23.316406 24.648438 -14.070312 27.457031 -3.34375 27.5625 C -0.59375 27.5625 2.5625 27.203125 6.125 26.484375 C 9.664062 25.742188 13.085938 24.660156 16.390625 23.234375 C 19.691406 21.816406 22.894531 20.140625 26 18.203125 C 33.664062 13.492188 40.757812 8.003906 47.28125 1.734375 C 51.800781 -2.503906 56.0625 -6.96875 60.0625 -11.65625 C 64.0625 -16.34375 67.941406 -21.113281 71.703125 -25.96875 C 71.921875 -26.332031 72.140625 -26.660156 72.359375 -26.953125 Z M 90.640625 -33.140625 C 93.523438 -39.703125 96.5 -46.25 99.5625 -52.78125 C 99.695312 -53.132812 100.15625 -54.160156 100.9375 -55.859375 C 101.726562 -57.566406 102.632812 -59.550781 103.65625 -61.8125 C 104.6875 -64.070312 105.628906 -66.207031 106.484375 -68.21875 C 107.335938 -70.226562 107.9375 -71.734375 108.28125 -72.734375 C 108.632812 -73.742188 108.535156 -73.835938 107.984375 -73.015625 C 107.835938 -72.835938 107.726562 -72.660156 107.65625 -72.484375 C 107.175781 -71.785156 106.71875 -71.085938 106.28125 -70.390625 C 102.632812 -64.742188 98.96875 -59.101562 95.28125 -53.46875 C 91.601562 -47.832031 87.796875 -42.28125 83.859375 -36.8125 C 83.484375 -36.289062 83.09375 -35.742188 82.6875 -35.171875 C 81.9375 -34.128906 81.191406 -33.082031 80.453125 -32.03125 C 80.160156 -31.59375 80.078125 -31.226562 80.203125 -30.9375 C 80.328125 -30.65625 80.628906 -30.515625 81.109375 -30.515625 C 81.910156 -30.515625 82.695312 -30.535156 83.46875 -30.578125 C 84.707031 -30.671875 85.929688 -30.71875 87.140625 -30.71875 C 88.078125 -30.675781 88.800781 -30.875 89.3125 -31.3125 C 89.832031 -31.75 90.273438 -32.359375 90.640625 -33.140625 Z M 90.640625 -33.140625"/></g><g id="c"><path d="M 23.140625 -15.21875 C 23.296875 -15 23.332031 -14.78125 23.25 -14.5625 C 23.175781 -14.34375 23.03125 -14.144531 22.8125 -13.96875 C 21.4375 -12.738281 19.898438 -11.753906 18.203125 -11.015625 C 15.304688 -9.660156 12.265625 -8.828125 9.078125 -8.515625 C 6.566406 -8.253906 4.175781 -8.628906 1.90625 -9.640625 C 1.070312 -10.015625 0.457031 -9.816406 0.0625 -9.046875 C -0.5 -7.953125 -1.085938 -6.859375 -1.703125 -5.765625 C -2.003906 -5.148438 -2.332031 -4.507812 -2.6875 -3.84375 C -2.726562 -3.769531 -2.769531 -3.679688 -2.8125 -3.578125 C -2.945312 -3.359375 -3.078125 -3.148438 -3.203125 -2.953125 C -3.335938 -2.753906 -3.5625 -2.613281 -3.875 -2.53125 C -4.039062 -2.5 -4.210938 -2.484375 -4.390625 -2.484375 C -4.566406 -2.484375 -4.722656 -2.519531 -4.859375 -2.59375 C -4.984375 -2.695312 -5.085938 -2.832031 -5.171875 -3 C -5.265625 -3.164062 -5.3125 -3.335938 -5.3125 -3.515625 C -5.175781 -4.097656 -4.976562 -4.664062 -4.71875 -5.21875 C -4.15625 -6.5 -3.609375 -7.753906 -3.078125 -8.984375 C -1.722656 -12.128906 -0.300781 -15.234375 1.1875 -18.296875 C 5.3125 -26.753906 9.234375 -35.296875 12.953125 -43.921875 C 13.253906 -44.753906 13.664062 -45.5 14.1875 -46.15625 C 14.582031 -46.632812 15.128906 -46.765625 15.828125 -46.546875 C 16.535156 -46.242188 16.753906 -45.734375 16.484375 -45.015625 C 16.003906 -43.546875 15.484375 -42.066406 14.921875 -40.578125 C 12.160156 -33.742188 9.132812 -27.046875 5.84375 -20.484375 C 5.15625 -19.066406 4.910156 -18.171875 5.109375 -17.796875 C 5.304688 -17.429688 5.769531 -17.40625 6.5 -17.71875 C 7.238281 -18.03125 8.097656 -18.441406 9.078125 -18.953125 C 9.773438 -19.347656 10.472656 -19.695312 11.171875 -20 C 11.304688 -20.101562 11.429688 -20.175781 11.546875 -20.21875 C 12.390625 -20.6875 13.296875 -20.941406 14.265625 -20.984375 C 14.648438 -20.984375 14.929688 -20.816406 15.109375 -20.484375 C 15.203125 -20.265625 15.203125 -20.070312 15.109375 -19.90625 C 15.023438 -19.75 14.914062 -19.628906 14.78125 -19.546875 C 13.28125 -18.671875 11.765625 -17.835938 10.234375 -17.046875 C 9.503906 -16.703125 8.738281 -16.332031 7.9375 -15.9375 C 7.164062 -15.582031 6.398438 -15.207031 5.640625 -14.8125 C 5.117188 -14.507812 4.640625 -14.160156 4.203125 -13.765625 C 3.191406 -12.710938 3.300781 -11.835938 4.53125 -11.140625 C 5.550781 -10.703125 6.570312 -10.472656 7.59375 -10.453125 C 8.625 -10.429688 9.644531 -10.550781 10.65625 -10.8125 C 13.800781 -11.507812 16.757812 -12.648438 19.53125 -14.234375 C 19.75 -14.359375 19.96875 -14.46875 20.1875 -14.5625 C 20.695312 -14.90625 21.242188 -15.207031 21.828125 -15.46875 C 22.046875 -15.5625 22.28125 -15.597656 22.53125 -15.578125 C 22.789062 -15.554688 22.992188 -15.4375 23.140625 -15.21875 Z M 23.140625 -15.21875"/></g><g id="d"><path d="M 24.234375 -13.90625 C 23.878906 -13.59375 23.503906 -13.304688 23.109375 -13.046875 C 21.835938 -12.253906 20.6875 -11.628906 19.65625 -11.171875 C 18.632812 -10.710938 17.425781 -10.242188 16.03125 -9.765625 C 13.957031 -9.148438 12.628906 -9.289062 12.046875 -10.1875 C 11.460938 -11.082031 11.367188 -12.320312 11.765625 -13.90625 C 12.316406 -16.175781 12.632812 -17.835938 12.71875 -18.890625 C 12.8125 -19.953125 12.46875 -20.316406 11.6875 -19.984375 C 10.90625 -19.660156 9.476562 -18.570312 7.40625 -16.71875 C 4.519531 -14.226562 2.050781 -11.382812 0 -8.1875 C -0.257812 -7.738281 -0.578125 -7.375 -0.953125 -7.09375 C -1.328125 -6.820312 -1.796875 -6.6875 -2.359375 -6.6875 C -2.898438 -6.6875 -3.285156 -6.820312 -3.515625 -7.09375 C -3.753906 -7.375 -3.765625 -7.753906 -3.546875 -8.234375 C -2.378906 -10.828125 -1.175781 -13.394531 0.0625 -15.9375 C 2.164062 -20.351562 4.242188 -24.753906 6.296875 -29.140625 C 7.828125 -32.421875 9.34375 -35.703125 10.84375 -38.984375 C 11.75 -40.921875 12.644531 -42.851562 13.53125 -44.78125 C 13.601562 -44.9375 13.691406 -45.101562 13.796875 -45.28125 C 13.867188 -45.5 13.957031 -45.71875 14.0625 -45.9375 C 14.175781 -46.15625 14.304688 -46.394531 14.453125 -46.65625 C 14.566406 -46.875 14.785156 -47.050781 15.109375 -47.1875 C 15.441406 -47.332031 15.769531 -47.425781 16.09375 -47.46875 C 16.425781 -47.507812 16.6875 -47.488281 16.875 -47.40625 C 17.125 -47.226562 17.265625 -47.039062 17.296875 -46.84375 C 17.328125 -46.644531 17.296875 -46.4375 17.203125 -46.21875 C 17.160156 -46.175781 17.140625 -46.101562 17.140625 -46 C 16.734375 -44.832031 16.3125 -43.695312 15.875 -42.59375 C 13.351562 -36.507812 10.597656 -30.507812 7.609375 -24.59375 C 7.390625 -24.195312 7.132812 -23.722656 6.84375 -23.171875 C 6.40625 -22.367188 5.992188 -21.582031 5.609375 -20.8125 C 5.234375 -20.050781 5.109375 -19.539062 5.234375 -19.28125 C 5.367188 -19.019531 5.960938 -19.21875 7.015625 -19.875 C 7.335938 -20.101562 7.625 -20.328125 7.875 -20.546875 C 8.71875 -21.097656 9.546875 -21.625 10.359375 -22.125 C 11.078125 -22.601562 11.875 -22.859375 12.75 -22.890625 C 14.832031 -23.035156 16.003906 -22.09375 16.265625 -20.0625 C 16.367188 -19.25 16.335938 -18.441406 16.171875 -17.640625 C 16.015625 -16.847656 15.828125 -16.0625 15.609375 -15.28125 C 15.566406 -15.0625 15.53125 -14.84375 15.5 -14.625 C 15.132812 -13.269531 15.222656 -12.492188 15.765625 -12.296875 C 16.316406 -12.097656 17.082031 -12.207031 18.0625 -12.625 C 19.050781 -13.039062 20.054688 -13.550781 21.078125 -14.15625 C 21.773438 -14.507812 22.382812 -14.816406 22.90625 -15.078125 C 23.4375 -15.335938 23.832031 -15.445312 24.09375 -15.40625 C 24.570312 -15.320312 24.789062 -15.125 24.75 -14.8125 C 24.707031 -14.507812 24.535156 -14.207031 24.234375 -13.90625 Z M 24.234375 -13.90625"/></g><g id="e"><path d="M 11.859375 -12.578125 C 10.796875 -11.316406 9.535156 -10.15625 8.078125 -9.09375 C 6.628906 -8.039062 4.988281 -7.332031 3.15625 -6.96875 C 1.332031 -6.601562 -0.0820312 -6.738281 -1.09375 -7.375 C -2.113281 -8.007812 -2.316406 -9.421875 -1.703125 -11.609375 C -0.898438 -13.878906 0.191406 -16.039062 1.578125 -18.09375 C 1.898438 -18.53125 2.359375 -18.835938 2.953125 -19.015625 C 3.390625 -19.117188 3.769531 -19.046875 4.09375 -18.796875 C 4.425781 -18.546875 4.554688 -18.234375 4.484375 -17.859375 C 4.179688 -17.140625 3.847656 -16.421875 3.484375 -15.703125 C 3.128906 -14.984375 2.894531 -14.515625 2.78125 -14.296875 C 2.082031 -13.023438 1.59375 -11.691406 1.3125 -10.296875 C 1.3125 -9.503906 2.375 -9.453125 4.5 -10.140625 C 6.632812 -10.835938 8.707031 -12.117188 10.71875 -13.984375 C 12.726562 -15.847656 13.6875 -16.394531 13.59375 -15.625 C 13.507812 -14.863281 12.929688 -13.847656 11.859375 -12.578125 Z M 6.65625 -22.5625 C 6.5625 -22.488281 6.359375 -22.394531 6.046875 -22.28125 C 5.734375 -22.175781 5.398438 -22.097656 5.046875 -22.046875 C 4.703125 -21.992188 4.429688 -22.046875 4.234375 -22.203125 C 4.035156 -22.367188 4.023438 -22.691406 4.203125 -23.171875 C 4.523438 -24.003906 4.859375 -24.734375 5.203125 -25.359375 C 5.554688 -25.984375 6.007812 -26.675781 6.5625 -27.4375 C 6.925781 -27.769531 7.316406 -27.953125 7.734375 -27.984375 C 8.148438 -28.015625 8.492188 -27.90625 8.765625 -27.65625 C 9.046875 -27.40625 9.128906 -27.0625 9.015625 -26.625 C 8.578125 -25.050781 7.789062 -23.695312 6.65625 -22.5625 Z M 6.65625 -22.5625"/></g><g id="f"><path d="M 14.453125 -14.234375 C 15.109375 -14.890625 15.65625 -15.257812 16.09375 -15.34375 C 16.53125 -15.425781 16.8125 -15.359375 16.9375 -15.140625 C 17.070312 -14.921875 16.988281 -14.617188 16.6875 -14.234375 C 14.9375 -12.128906 12.972656 -10.3125 10.796875 -8.78125 C 8.628906 -7.25 6.394531 -6.363281 4.09375 -6.125 C 1.800781 -5.882812 0.414062 -7.132812 -0.0625 -9.875 C -0.414062 -12.601562 1.234375 -18.15625 4.890625 -26.53125 C 8.554688 -34.914062 11.453125 -41.785156 13.578125 -47.140625 C 13.765625 -47.617188 14.035156 -48.035156 14.390625 -48.390625 C 14.867188 -48.867188 15.4375 -48.976562 16.09375 -48.71875 C 16.3125 -48.625 16.53125 -48.46875 16.75 -48.25 C 16.96875 -48.03125 17.035156 -47.640625 16.953125 -47.078125 C 7.546875 -24.742188 2.988281 -12.601562 3.28125 -10.65625 C 3.582031 -8.707031 4.84375 -8.222656 7.0625 -9.203125 C 9.28125 -10.191406 10.988281 -11.195312 12.1875 -12.21875 C 13.394531 -13.25 14.148438 -13.921875 14.453125 -14.234375 Z M 14.453125 -14.234375"/></g><clipPath id="a"><path d="M 0.0859375 1 L 207 1 L 207 141.5 L 0.0859375 141.5 Z M 0.0859375 1"/></clipPath></defs><g clip-path="url(#a)"><g fill="#FFF"><use x="43.859" y="111.708" xmlns:xlink="http://www.w3.org/1999/xlink" xlink:href="#b" xlink:type="simple" xlink:actuate="onLoad" xlink:show="embed"/></g></g><g fill="#FFF"><use x="138.493" y="111.708" xmlns:xlink="http://www.w3.org/1999/xlink" xlink:href="#c" xlink:type="simple" xlink:actuate="onLoad" xlink:show="embed"/></g><g fill="#FFF"><use x="159.51" y="111.708" xmlns:xlink="http://www.w3.org/1999/xlink" xlink:href="#d" xlink:type="simple" xlink:actuate="onLoad" xlink:show="embed"/></g><g fill="#FFF"><use x="182.288" y="111.708" xmlns:xlink="http://www.w3.org/1999/xlink" xlink:href="#e" xlink:type="simple" xlink:actuate="onLoad" xlink:show="embed"/></g><g fill="#FFF"><use x="193.931" y="111.708" xmlns:xlink="http://www.w3.org/1999/xlink" xlink:href="#f" xlink:type="simple" xlink:actuate="onLoad" xlink:show="embed"/></g></svg>